<svg xmlns="http://www.w3.org/2000/svg" viewBox="0 0 600 400" width="600" height="400" role="img" aria-label="Final WebDev Lab Exam project thumbnail">
  <rect width="600" height="400" fill="#5e3f24"/>
  <g>
    <rect x="120" y="50" width="360" height="300" rx="12" fill="#2a1d10"/>
    <rect x="120" y="50" width="360" height="34" rx="12" fill="#7c5430"/>
    <circle cx="140" cy="67" r="5" fill="#ea580c"/>
    <circle cx="156" cy="67" r="5" fill="#fbbf24"/>
    <circle cx="172" cy="67" r="5" fill="#10b981"/>
    <text x="300" y="72" font-family="Arial" font-size="11" font-weight="600" fill="#c9a87c" text-anchor="middle">final-webdev1-lab-exam</text>
    <rect x="140" y="104" width="160" height="20" rx="3" fill="#fbbf24"/>
    <rect x="140" y="132" width="100" height="12" rx="2" fill="#b09880" opacity="0.6"/>
    <rect x="140" y="152" width="120" height="12" rx="2" fill="#b09880" opacity="0.4"/>
    <rect x="340" y="104" width="120" height="100" rx="8" fill="#382515"/>
    <rect x="354" y="118" width="92" height="10" rx="2" fill="#c9a87c" opacity="0.7"/>
    <rect x="354" y="134" width="70" height="6" rx="2" fill="#b09880" opacity="0.5"/>
    <rect x="354" y="146" width="80" height="6" rx="2" fill="#b09880" opacity="0.5"/>
    <rect x="354" y="158" width="60" height="6" rx="2" fill="#b09880" opacity="0.5"/>
    <rect x="354" y="176" width="50" height="18" rx="9" fill="#ea580c"/>
    <rect x="140" y="220" width="320" height="56" rx="8" fill="#382515"/>
    <text x="156" y="244" font-family="'Courier New', monospace" font-size="11" fill="#fbbf24">data.json</text>
    <text x="156" y="262" font-family="'Courier New', monospace" font-size="9" fill="#b09880">{ "name": "Jan Liam", "score": 100 }</text>
    <rect x="140" y="290" width="100" height="32" rx="8" fill="#10b981"/>
    <text x="190" y="310" font-family="Arial" font-size="11" font-weight="700" fill="#fff" text-anchor="middle">HTML</text>
    <rect x="250" y="290" width="100" height="32" rx="8" fill="#ea580c"/>
    <text x="300" y="310" font-family="Arial" font-size="11" font-weight="700" fill="#fff" text-anchor="middle">CSS</text>
    <rect x="360" y="290" width="100" height="32" rx="8" fill="#fbbf24"/>
    <text x="410" y="310" font-family="Arial" font-size="11" font-weight="700" fill="#2a1d10" text-anchor="middle">JS</text>
  </g>
  <text x="300" y="372" font-family="'Segoe UI', Arial, sans-serif" font-size="22" font-weight="700" fill="#f5e6d3" text-anchor="middle" opacity="0.95">Final Lab Exam</text>
</svg>
