<svg xmlns="http://www.w3.org/2000/svg" viewBox="0 0 600 400" width="600" height="400" role="img" aria-label="Seed of Hope documentation site thumbnail">
  <rect width="600" height="400" fill="#10b981"/>
  <g>
    <rect x="80" y="40" width="440" height="320" rx="14" fill="#f5e6d3"/>
    <rect x="80" y="40" width="440" height="50" rx="14" fill="#2a1d10"/>
    <circle cx="106" cy="65" r="10" fill="#10b981"/>
    <text x="106" y="70" font-family="Arial" font-size="12" font-weight="900" fill="#fff" text-anchor="middle">S</text>
    <text x="130" y="71" font-family="Arial" font-size="16" font-weight="700" fill="#f5e6d3">Seed of Hope</text>
    <rect x="380" y="55" width="50" height="20" rx="10" fill="#382515"/>
    <text x="405" y="69" font-family="Arial" font-size="10" font-weight="600" fill="#f5e6d3" text-anchor="middle">Docs</text>
    <rect x="440" y="55" width="60" height="20" rx="10" fill="#382515"/>
    <text x="470" y="69" font-family="Arial" font-size="10" font-weight="600" fill="#f5e6d3" text-anchor="middle">Blog</text>
    <rect x="100" y="110" width="200" height="30" rx="4" fill="#9a6b3f"/>
    <rect x="100" y="150" width="140" height="14" rx="2" fill="#b09880" opacity="0.6"/>
    <rect x="100" y="172" width="160" height="14" rx="2" fill="#b09880" opacity="0.4"/>
    <rect x="100" y="206" width="120" height="32" rx="16" fill="#10b981"/>
    <text x="160" y="226" font-family="Arial" font-size="12" font-weight="700" fill="#fff" text-anchor="middle">Get Started</text>
    <rect x="230" y="206" width="100" height="32" rx="16" fill="#382515"/>
    <text x="280" y="226" font-family="Arial" font-size="12" font-weight="600" fill="#f5e6d3" text-anchor="middle">GitHub</text>
    <g transform="translate(340, 110)">
      <circle cx="80" cy="80" r="70" fill="#10b981" opacity="0.2"/>
      <circle cx="80" cy="80" r="50" fill="#10b981" opacity="0.3"/>
      <circle cx="80" cy="80" r="30" fill="#10b981" opacity="0.5"/>
      <path d="M 80 50 Q 80 30 100 30 Q 120 30 120 50 Q 120 70 100 70 Q 80 70 80 50 Z" fill="#fbbf24"/>
      <rect x="76" y="70" width="8" height="40" fill="#9a6b3f"/>
      <rect x="76" y="70" width="4" height="40" fill="#7c5430"/>
    </g>
    <rect x="100" y="280" width="400" height="56" rx="8" fill="#d4a574" opacity="0.4"/>
    <text x="120" y="304" font-family="Arial" font-size="12" font-weight="700" fill="#2a1d10">Latest Blog Post</text>
    <text x="120" y="322" font-family="Arial" font-size="10" fill="#5e3f24">Growing a better future, one seed at a time</text>
  </g>
  <text x="300" y="372" font-family="'Segoe UI', Arial, sans-serif" font-size="20" font-weight="700" fill="#2a1d10" text-anchor="middle">Seed of Hope · Docusaurus</text>
</svg>
