<svg xmlns="http://www.w3.org/2000/svg" viewBox="0 0 600 400" width="600" height="400" role="img" aria-label="McDonald's Landing Page project thumbnail">
  <rect width="600" height="400" fill="#ea580c"/>
  <g>
    <rect x="140" y="50" width="320" height="300" rx="14" fill="#f5e6d3"/>
    <rect x="140" y="50" width="320" height="44" rx="14" fill="#d4a574"/>
    <rect x="156" y="64" width="60" height="16" rx="3" fill="#2a1d10"/>
    <rect x="230" y="64" width="50" height="16" rx="3" fill="#2a1d10" opacity="0.6"/>
    <rect x="294" y="64" width="50" height="16" rx="3" fill="#2a1d10" opacity="0.6"/>
    <rect x="358" y="60" width="80" height="24" rx="12" fill="#ea580c"/>
    <text x="398" y="76" font-family="Arial" font-size="11" font-weight="700" fill="#fff" text-anchor="middle">ORDER</text>
    <rect x="156" y="110" width="180" height="20" rx="3" fill="#2a1d10"/>
    <rect x="156" y="138" width="140" height="14" rx="3" fill="#9a6b3f" opacity="0.7"/>
    <rect x="156" y="166" width="100" height="28" rx="14" fill="#ea580c"/>
    <text x="206" y="184" font-family="Arial" font-size="11" font-weight="700" fill="#fff" text-anchor="middle">DELIVER NOW</text>
    <rect x="360" y="110" width="86" height="86" rx="10" fill="#fbbf24"/>
    <circle cx="403" cy="153" r="26" fill="#ea580c"/>
    <text x="403" y="160" font-family="Arial" font-size="22" font-weight="900" fill="#fff" text-anchor="middle">M</text>
    <rect x="156" y="220" width="288" height="70" rx="8" fill="#d4a574" opacity="0.5"/>
    <rect x="170" y="234" width="100" height="10" rx="2" fill="#2a1d10"/>
    <rect x="170" y="250" width="60" height="6" rx="2" fill="#9a6b3f"/>
    <rect x="170" y="262" width="80" height="6" rx="2" fill="#9a6b3f" opacity="0.6"/>
    <rect x="280" y="234" width="100" height="10" rx="2" fill="#2a1d10"/>
    <rect x="280" y="250" width="60" height="6" rx="2" fill="#9a6b3f"/>
    <rect x="280" y="262" width="80" height="6" rx="2" fill="#9a6b3f" opacity="0.6"/>
    <rect x="156" y="306" width="288" height="32" rx="6" fill="#2a1d10"/>
    <text x="300" y="326" font-family="Arial" font-size="11" font-weight="600" fill="#f5e6d3" text-anchor="middle">McDelivery · App Store · Google Play</text>
  </g>
  <text x="300" y="372" font-family="'Segoe UI', Arial, sans-serif" font-size="22" font-weight="700" fill="#f5e6d3" text-anchor="middle" opacity="0.95">McDonald's Landing Page</text>
</svg>
