<svg xmlns="http://www.w3.org/2000/svg" viewBox="0 0 600 400" width="600" height="400" role="img" aria-label="Styled Product Page project thumbnail">
  <rect width="600" height="400" fill="#7c5430"/>
  <g>
    <rect x="150" y="60" width="300" height="280" rx="14" fill="#2a1d10"/>
    <rect x="170" y="80" width="120" height="120" rx="8" fill="#d4a574"/>
    <circle cx="230" cy="140" r="38" fill="#ea580c"/>
    <path d="M 210 140 L 230 120 L 250 140 L 230 160 Z" fill="#fbbf24"/>
    <rect x="310" y="80" width="120" height="14" rx="3" fill="#f5e6d3"/>
    <rect x="310" y="104" width="90" height="10" rx="2" fill="#b09880" opacity="0.7"/>
    <rect x="310" y="124" width="100" height="10" rx="2" fill="#b09880" opacity="0.5"/>
    <rect x="310" y="144" width="70" height="10" rx="2" fill="#b09880" opacity="0.5"/>
    <rect x="310" y="170" width="60" height="22" rx="11" fill="#fbbf24"/>
    <text x="340" y="185" font-family="Arial" font-size="10" font-weight="700" fill="#2a1d10" text-anchor="middle">$29.99</text>
    <rect x="170" y="220" width="260" height="36" rx="8" fill="#382515"/>
    <rect x="186" y="232" width="80" height="12" rx="2" fill="#c9a87c" opacity="0.8"/>
    <rect x="170" y="270" width="125" height="50" rx="6" fill="#ea580c"/>
    <text x="232" y="300" font-family="Arial" font-size="12" font-weight="700" fill="#fff" text-anchor="middle">ADD TO CART</text>
    <rect x="305" y="270" width="125" height="50" rx="6" fill="#382515"/>
    <text x="367" y="300" font-family="Arial" font-size="12" font-weight="600" fill="#f5e6d3" text-anchor="middle">BUY NOW</text>
  </g>
  <text x="300" y="372" font-family="'Segoe UI', Arial, sans-serif" font-size="22" font-weight="700" fill="#f5e6d3" text-anchor="middle" opacity="0.95">Styled Product Page</text>
</svg>
