<svg xmlns="http://www.w3.org/2000/svg" viewBox="0 0 600 400" width="600" height="400" role="img" aria-label="Personal Website (Multi-Page) project thumbnail">
  <rect width="600" height="400" fill="#9a6b3f"/>
  <g>
    <rect x="160" y="60" width="280" height="280" rx="14" fill="#2a1d10"/>
    <rect x="160" y="60" width="280" height="36" rx="14" fill="#5e3f24"/>
    <circle cx="180" cy="78" r="5" fill="#ea580c"/>
    <circle cx="196" cy="78" r="5" fill="#fbbf24"/>
    <circle cx="212" cy="78" r="5" fill="#10b981"/>
    <rect x="260" y="72" width="120" height="12" rx="3" fill="#c9a87c" opacity="0.6"/>
    <rect x="180" y="116" width="240" height="24" rx="4" fill="#c9a87c"/>
    <rect x="180" y="116" width="160" height="24" rx="4" fill="#fbbf24"/>
    <rect x="180" y="156" width="100" height="160" rx="6" fill="#382515"/>
    <rect x="194" y="170" width="72" height="10" rx="2" fill="#c9a87c" opacity="0.7"/>
    <rect x="194" y="186" width="72" height="6" rx="2" fill="#b09880" opacity="0.5"/>
    <rect x="194" y="198" width="60" height="6" rx="2" fill="#b09880" opacity="0.5"/>
    <rect x="294" y="156" width="126" height="76" rx="6" fill="#382515"/>
    <rect x="308" y="170" width="98" height="10" rx="2" fill="#c9a87c" opacity="0.7"/>
    <rect x="308" y="186" width="80" height="6" rx="2" fill="#b09880" opacity="0.5"/>
    <rect x="308" y="198" width="90" height="6" rx="2" fill="#b09880" opacity="0.5"/>
    <rect x="294" y="244" width="126" height="72" rx="6" fill="#382515"/>
    <rect x="308" y="258" width="98" height="10" rx="2" fill="#c9a87c" opacity="0.7"/>
    <rect x="308" y="274" width="70" height="6" rx="2" fill="#b09880" opacity="0.5"/>
  </g>
  <text x="300" y="372" font-family="'Segoe UI', Arial, sans-serif" font-size="22" font-weight="700" fill="#f5e6d3" text-anchor="middle" opacity="0.95">Personal Website</text>
</svg>
